<svg width="78" height="78" viewBox="0 0 78 78" fill="none" xmlns="http://www.w3.org/2000/svg">
<path fill-rule="evenodd" clip-rule="evenodd" d="M74.75 16.9565H3.25V71.2174C3.25 74.9633 6.45117 78 10.4 78H67.6C71.5488 78 74.75 74.9633 74.75 71.2174V16.9565ZM67.2237 23.7391H10.7763V67.8261C10.7763 69.699 12.3769 71.2174 14.3513 71.2174H63.6487C65.6231 71.2174 67.2237 69.699 67.2237 67.8261V23.7391Z" fill="black"/>
<path d="M24.7 30.5217C26.6744 30.5217 28.275 32.0401 28.275 33.913C28.275 39.5319 33.0767 44.087 39 44.087C44.9233 44.087 49.725 39.5319 49.725 33.913C49.725 32.0401 51.3256 30.5217 53.3 30.5217C55.2744 30.5217 56.875 32.0401 56.875 33.913C56.875 43.2779 48.8721 50.8696 39 50.8696C29.1279 50.8696 21.125 43.2779 21.125 33.913C21.125 32.0401 22.7256 30.5217 24.7 30.5217Z" fill="black"/>
<path d="M18.0231 0C15.5116 0 13.1842 1.25004 11.8921 3.29302L3.25 16.9565H13.975L19.3375 6.78261H58.6625L64.025 16.9565H74.75L66.1077 3.29295C64.8155 1.25001 62.4881 0 59.9766 0H18.0231Z" fill="black"/>
</svg>
