<svg width="24" height="24" viewBox="0 0 24 24" fill="none" xmlns="http://www.w3.org/2000/svg">
<path d="M7.37033 8.1025C7.43881 8.03753 7.53186 8.00068 7.62915 8.00001C7.72643 7.99934 7.82005 8.03489 7.88954 8.0989C7.95902 8.16291 7.99872 8.25018 7.99997 8.34162C8.00121 8.43307 7.9639 8.52126 7.89618 8.58692L5.93675 10.8894C5.90309 10.9235 5.86247 10.9509 5.81732 10.9698C5.77216 10.9888 5.72341 10.9991 5.67395 10.9999C5.6245 11.0008 5.57536 10.9923 5.52948 10.9749C5.4836 10.9576 5.44191 10.9317 5.4069 10.8988L4.10778 9.67816C4.03875 9.61324 3.99998 9.52519 4 9.4334C4.00002 9.3416 4.03884 9.25358 4.10791 9.18869C4.17698 9.12379 4.27064 9.08735 4.3683 9.08737C4.46595 9.08739 4.5596 9.12388 4.62863 9.1888L5.65608 10.1548L7.36059 8.1133C7.36368 8.10959 7.36677 8.10582 7.37033 8.1025Z" fill="black"/>
<path d="M7.37033 13.1025C7.43881 13.0375 7.53186 13.0007 7.62915 13C7.72643 12.9993 7.82005 13.0349 7.88954 13.0989C7.95902 13.1629 7.99872 13.2502 7.99997 13.3416C8.00121 13.4331 7.9639 13.5213 7.89618 13.5869L5.93675 15.8894C5.90309 15.9235 5.86247 15.9509 5.81732 15.9698C5.77216 15.9888 5.72341 15.9991 5.67395 15.9999C5.6245 16.0008 5.57536 15.9923 5.52948 15.9749C5.4836 15.9576 5.44191 15.9317 5.4069 15.8988L4.10778 14.6782C4.03875 14.6132 3.99998 14.5252 4 14.4334C4.00002 14.3416 4.03884 14.2536 4.10791 14.1887C4.17698 14.1238 4.27064 14.0873 4.3683 14.0874C4.46595 14.0874 4.5596 14.1239 4.62863 14.1888L5.65608 15.1548L7.36059 13.1133C7.36368 13.1096 7.36677 13.1058 7.37033 13.1025Z" fill="black"/>
<path fill-rule="evenodd" clip-rule="evenodd" d="M2 4C0.895431 4 0 4.89543 0 6V18C0 19.1046 0.89543 20 2 20H22C23.1046 20 24 19.1046 24 18V6C24 4.89543 23.1046 4 22 4H2ZM22 6H2V18H22V6Z" fill="black"/>
<path d="M10 9.5C10 9.22386 10.2239 9 10.5 9H18.5C18.7761 9 19 9.22386 19 9.5C19 9.77614 18.7761 10 18.5 10H10.5C10.2239 10 10 9.77614 10 9.5Z" fill="black"/>
<path d="M10 14.5C10 14.2239 10.2239 14 10.5 14H18.5C18.7761 14 19 14.2239 19 14.5C19 14.7761 18.7761 15 18.5 15H10.5C10.2239 15 10 14.7761 10 14.5Z" fill="black"/>
</svg>
