<svg width="24" height="24" viewBox="0 0 24 24" fill="none" xmlns="http://www.w3.org/2000/svg">
    <g clip-path="url(#clip0)">
        <path d="M20.2274 2.1465C20.6384 1.73169 21.1968 1.49643 21.7807 1.49213C22.3646 1.48782 22.9265 1.71483 23.3435 2.12354C23.7606 2.53225 23.9988 3.08942 24.0063 3.67329C24.0138 4.25716 23.7898 4.82025 23.3834 5.2395L11.6234 19.941C11.4214 20.1585 11.1776 20.3331 10.9066 20.4543C10.6356 20.5755 10.343 20.6409 10.0461 20.6465C9.74933 20.6521 9.45443 20.5978 9.17906 20.4869C8.90369 20.376 8.65349 20.2107 8.4434 20.001L0.646397 12.207C0.232063 11.7925 -0.00062887 11.2303 -0.000488218 10.6442C-0.000347565 10.0581 0.232614 9.49608 0.647147 9.08175C1.06168 8.66741 1.62383 8.43472 2.20993 8.43486C2.79603 8.435 3.35806 8.66796 3.7724 9.0825L9.9389 15.2505L20.1689 2.2155C20.1875 2.19178 20.2075 2.16923 20.2289 2.148L20.2274 2.1465Z" fill="black"/>
    </g>
    <defs>
        <clipPath id="clip0">
            <rect width="24" height="24" fill="white"/>
        </clipPath>
    </defs>
</svg>
