<svg width="24" height="24" viewBox="0 0 24 24" fill="none" xmlns="http://www.w3.org/2000/svg">
  <g clip-path="url(#clip0)">
    <path d="M22.25 1.49983H16.625L16.1844 0.623263C16.091 0.435863 15.9473 0.278226 15.7692 0.168087C15.5912 0.0579474 15.3859 -0.000325041 15.1766 -0.000174887H9.81875C9.60987 -0.000977881 9.40498 0.0570773 9.22756 0.167339C9.05015 0.277601 8.90739 0.43561 8.81562 0.623263L8.375 1.49983H2.75V2.99983C2.89834 2.99983 3.04334 2.95584 3.16668 2.87343C3.29001 2.79102 3.38614 2.67388 3.44291 2.53684C3.49968 2.39979 3.51453 2.24899 3.48559 2.10351C3.45665 1.95802 3.38522 1.82438 3.28033 1.7195C3.17544 1.61461 3.0418 1.54317 2.89632 1.51424C2.75083 1.4853 2.60003 1.50015 2.46299 1.55692C2.32594 1.61368 2.20881 1.70981 2.1264 1.83315C2.04399 1.95648 2 2.10149 2 2.24983V3.74983C2 3.94874 2.07902 4.1395 2.21967 4.28016C2.36032 4.42081 2.55109 4.49983 2.75 4.49983H22.25C22.4489 4.49983 22.6397 4.42081 22.7803 4.28016C22.921 4.1395 23 3.94874 23 3.74983V2.24983C23 2.10149 22.956 1.95648 22.8736 1.83315C22.7912 1.70981 22.6741 1.61368 22.537 1.55692C22.4 1.50015 22.2492 1.4853 22.1037 1.51424C21.9582 1.54317 21.8246 1.61461 21.7197 1.7195C21.6148 1.82438 21.5434 1.95802 21.5144 2.10351C21.4855 2.24899 21.5003 2.39979 21.5571 2.53684C21.6139 2.67388 21.71 2.79102 21.8333 2.87343C21.9567 2.95584 22.1017 2.99983 22.25 2.99983V1.49983ZM4.49375 21.8904C4.52952 22.4617 4.78164 22.9978 5.19878 23.3897C5.61591 23.7816 6.16672 23.9998 6.73906 23.9998H18.2609C18.8333 23.9998 19.3841 23.7816 19.8012 23.3897C20.2184 22.9978 20.4705 22.4617 20.5062 21.8904L21.5 5.99982H3.5L4.49375 21.8904Z" fill="black"/>
  </g>
  <defs>
    <clipPath id="clip0">
      <rect width="24" height="24" fill="white"/>
    </clipPath>
  </defs>
</svg>
