<svg width="24" height="24" viewBox="0 0 24 24" fill="none" xmlns="http://www.w3.org/2000/svg">
<path d="M7.36959 22.3303L19.3699 10.33L13.67 4.63014L1.66968 16.6304C1.50448 16.7958 1.38712 17.0029 1.33006 17.2296L0 24L6.76912 22.6699C6.99639 22.6131 7.2043 22.4956 7.36959 22.3303ZM23.2438 6.45607C23.728 5.97175 24 5.31496 24 4.63014C24 3.94531 23.728 3.28852 23.2438 2.8042L21.1958 0.756164C20.7115 0.271993 20.0547 0 19.3699 0C18.685 0 18.0282 0.271993 17.5439 0.756164L15.4959 2.8042L21.1958 8.50411L23.2438 6.45607Z" fill="black"/>
</svg>
