<svg width="78" height="78" viewBox="0 0 78 78" fill="none" xmlns="http://www.w3.org/2000/svg">
<path d="M77.9611 53.625C77.5553 53.2187 76.9718 52.7871 76.2109 52.3301C76.1601 52.2793 75.9826 52.1777 75.6782 52.0254C75.1201 51.7207 74.5621 51.4414 74.004 51.1875C73.6996 51.0352 73.4967 50.959 73.3953 50.959C71.8226 50.2988 70.0977 49.7656 68.2206 49.3594V39.2285C71.924 39.7363 75.1709 41.2852 77.9611 43.875V53.625ZM62.4372 39C61.2704 39 59.9514 39.0762 58.4801 39.2285V29.4785C59.9514 29.3262 61.2704 29.25 62.4372 29.25C64.9738 29.25 66.9016 29.3262 68.2206 29.4785V39.2285C66.9523 39.0762 65.0245 39 62.4372 39ZM58.4801 19.7285V9.97852C59.9514 9.82617 61.2704 9.75 62.4372 9.75C65.0245 9.75 66.9523 9.82617 68.2206 9.97852V19.7285C66.9523 19.5762 65.0245 19.5 62.4372 19.5C61.2704 19.5 59.9514 19.5762 58.4801 19.7285ZM38.9992 25.7461V15.9961C43.8187 14.0156 47.0655 12.7461 48.7396 12.1875V21.9375C47.167 22.4453 43.9201 23.7148 38.9992 25.7461ZM25.5299 29.25C23.6021 29.25 21.5982 29.0469 19.5182 28.6406V18.8906C21.5982 19.2969 23.6021 19.5 25.5299 19.5C26.646 19.5 27.8889 19.373 29.2587 19.1191V28.8691C27.8889 29.123 26.646 29.25 25.5299 29.25ZM9.7777 24.375C11.9592 26.3555 15.206 27.7773 19.5182 28.6406V38.3906C15.1553 37.5273 11.9084 36.1055 9.7777 34.125V43.875C11.9592 45.8555 15.206 47.2773 19.5182 48.1406V58.2715C18.8079 58.1699 18.0723 58.0176 17.3114 57.8145C17.2099 57.8145 17.0831 57.7891 16.9309 57.7383C16.7787 57.6875 16.7026 57.6367 16.7026 57.5859C16.1445 57.4336 15.6118 57.2559 15.1045 57.0527C14.8001 56.9512 14.5465 56.8496 14.3436 56.748C13.8362 56.4941 13.3036 56.1895 12.7455 55.834C12.3396 55.5801 12.1114 55.4531 12.0606 55.4531C11.1982 54.8438 10.4372 54.2344 9.7777 53.625V73.125C9.7777 74.4453 9.29575 75.5879 8.33184 76.5527C7.36794 77.5176 6.21379 78 4.8694 78C3.52501 78 2.38355 77.5176 1.44501 76.5527C0.506477 75.5879 0.0372086 74.4453 0.0372086 73.125V4.875C0.0372086 3.50391 0.506477 2.34863 1.44501 1.40918C2.38355 0.469727 3.52501 0 4.8694 0C6.21379 0 7.36794 0.469727 8.33184 1.40918C9.29575 2.34863 9.7777 3.50391 9.7777 4.875C10.2343 5.33203 10.8431 5.78906 11.604 6.24609C11.6548 6.24609 11.7182 6.27148 11.7943 6.32227L12.0226 6.47461L12.2128 6.55078C12.7201 6.85547 13.2528 7.13477 13.8109 7.38867C14.0645 7.49023 14.2675 7.5918 14.4196 7.69336C15.1806 7.94727 15.8909 8.17578 16.5504 8.37891L16.7787 8.45508C17.6411 8.70898 18.5543 8.9375 19.5182 9.14062V18.8906C15.206 18.0273 11.9592 16.6055 9.7777 14.625V24.375ZM25.5299 39C26.646 39 27.8889 38.873 29.2587 38.6191V48.3691C27.8889 48.623 26.646 48.75 25.5299 48.75C23.6021 48.75 21.5982 48.5469 19.5182 48.1406V38.3906C21.5982 38.7969 23.6021 39 25.5299 39ZM48.7396 31.6875V41.4375C47.1162 41.9961 43.8694 43.2656 38.9992 45.2461V35.4961C43.8187 33.5156 47.0655 32.2461 48.7396 31.6875ZM48.7396 21.9375C52.1387 20.8203 55.3855 20.084 58.4801 19.7285V29.4785C55.3855 29.834 52.1387 30.5703 48.7396 31.6875V21.9375ZM29.2587 38.6191V28.8691C31.6938 28.4629 34.9406 27.4219 38.9992 25.7461V35.4961C34.9406 37.1719 31.6938 38.2129 29.2587 38.6191ZM58.4801 48.9785C55.3348 49.2832 52.0879 49.9941 48.7396 51.1113V41.4375C52.1387 40.3203 55.3855 39.584 58.4801 39.2285V48.9785ZM38.9992 54.9199C38.2382 55.2246 37.5279 55.5039 36.8684 55.7578C36.7162 55.8086 36.5387 55.8848 36.3357 55.9863C35.7777 56.1895 35.1436 56.418 34.4333 56.6719L33.9767 56.8242C33.1143 57.1289 32.3533 57.3574 31.6938 57.5098C30.8314 57.7637 30.0196 57.9668 29.2587 58.1191V48.3691C31.6938 47.9629 34.9406 46.9219 38.9992 45.2461V54.9199ZM29.2587 9.36914C31.2879 9.01367 33.6977 8.30273 36.4879 7.23633L36.564 7.19824L36.7162 7.16016C37.5279 6.85547 38.2889 6.55078 38.9992 6.24609V15.9961C34.9406 17.6719 31.6938 18.7129 29.2587 19.1191V9.36914ZM48.7396 2.4375C52.1387 1.32031 55.3855 0.583984 58.4801 0.228516V9.97852C55.3855 10.334 52.1387 11.0703 48.7396 12.1875V2.4375ZM70.4275 0.685547C70.5289 0.685547 70.6431 0.710937 70.7699 0.761719C70.8967 0.8125 70.9855 0.837891 71.0362 0.837891C71.5943 0.990234 72.1523 1.19336 72.7104 1.44727C72.9133 1.54883 73.1416 1.65039 73.3953 1.75195C73.9026 2.00586 74.4353 2.31055 74.9933 2.66602C75.3992 2.91992 75.6275 3.04688 75.6782 3.04688C76.5406 3.65625 77.3016 4.26562 77.9611 4.875V14.625C75.1709 12.0352 71.924 10.4863 68.2206 9.97852V0.228516C68.9309 0.330078 69.6665 0.482422 70.4275 0.685547ZM77.9611 24.375V34.125C75.1709 31.5352 71.924 29.9863 68.2206 29.4785V19.7285C71.924 20.2363 75.1709 21.7852 77.9611 24.375ZM62.4372 0H62.5894H62.4372Z" fill="black"/>
</svg>
