<svg width="24" height="24" viewBox="0 0 24 24" fill="currentColor" xmlns="http://www.w3.org/2000/svg">
  <path
    d="M13.374 0.504192C13.0027 0.180408 12.511 0 12 0C11.489 0 10.9973 0.180408 10.626 0.504192L0.938002 8.94852C0.641364 9.2074 0.405164 9.51942 0.243873 9.86546C0.0825821 10.2115 -0.000403144 10.5843 1.4725e-06 10.9609V21.235C0.000531675 21.9685 0.316836 22.6718 0.879388 23.1903C1.44194 23.7088 2.2047 24 3 24H6C6.79565 24 7.55871 23.7085 8.12132 23.1896C8.68393 22.6707 9 21.967 9 21.2332V16.6218C9 16.4394 9.05865 16.2611 9.16853 16.1094C9.27841 15.9578 9.43459 15.8396 9.61732 15.7698C9.80004 15.6999 10.0011 15.6817 10.1951 15.7173C10.3891 15.7529 10.5673 15.8407 10.7071 15.9697C10.847 16.0987 10.9422 16.263 10.9808 16.4419C11.0194 16.6208 10.9996 16.8062 10.9239 16.9748C10.8482 17.1433 10.72 17.2873 10.5556 17.3887C10.3911 17.49 10.1978 17.5441 10 17.5441H12.3906H14C13.8022 17.5441 13.6089 17.49 13.4444 17.3887C13.28 17.2873 13.1518 17.1433 13.0761 16.9748C13.0004 16.8062 12.9806 16.6208 13.0192 16.4419C13.0578 16.263 13.153 16.0987 13.2929 15.9697C13.4327 15.8407 13.6109 15.7529 13.8049 15.7173C13.9989 15.6817 14.2 15.6999 14.3827 15.7698C14.5654 15.8396 14.7216 15.9578 14.8315 16.1094C14.9414 16.2611 15 16.4394 15 16.6218V21.2332C15 21.967 15.3161 22.6707 15.8787 23.1896C16.4413 23.7085 17.2044 24 18 24H21C21.7957 24 22.5587 23.7085 23.1213 23.1896C23.6839 22.6707 24 21.967 24 21.2332V10.9591C23.9999 10.5826 23.9164 10.2101 23.7548 9.86439C23.5932 9.51868 23.3568 9.20703 23.06 8.94852L13.374 0.500503V0.504192Z"
  />
</svg>
