<svg width="24" height="24" viewBox="0 0 24 24" fill="none" xmlns="http://www.w3.org/2000/svg">
  <path
    d="M8.35821 7.86C8.35948 5.77579 9.18387 3.77731 10.6503 2.30355C12.1167 0.829785 14.1053 0.00127164 16.1791 0C20.4728 0 24 3.3828 24 7.74C23.9987 9.82421 23.1743 11.8227 21.7079 13.2965C20.2415 14.7702 18.2529 15.5987 16.1791 15.6C15.5451 15.6 14.9194 15.5088 14.326 15.3552C14.3118 15.743 14.1486 16.1101 13.8707 16.3795C13.5929 16.6489 13.2219 16.7996 12.8358 16.8H10.7463V18.9C10.7463 19.728 10.0776 20.4 9.25373 20.4H7.16418V21.9C7.16418 22.457 6.94403 22.9911 6.55216 23.3849C6.1603 23.7788 5.62881 24 5.07463 24H2.08955C1.53537 24 1.00388 23.7788 0.612016 23.3849C0.220148 22.9911 0 22.457 0 21.9V19.2936C0 18.4176 0.346269 17.5788 0.962388 16.9608L8.40597 9.4776C8.44228 9.43913 8.46884 9.39244 8.48339 9.34147C8.49794 9.2905 8.50005 9.23676 8.48955 9.1848C8.40761 8.74787 8.36367 8.30459 8.35821 7.86ZM19.4627 5.94C19.4627 5.54218 19.3054 5.16064 19.0255 4.87934C18.7456 4.59804 18.366 4.44 17.9701 4.44C17.5743 4.44 17.1947 4.59804 16.9148 4.87934C16.6349 5.16064 16.4776 5.54218 16.4776 5.94C16.4776 6.33782 16.6349 6.71936 16.9148 7.00066C17.1947 7.28196 17.5743 7.44 17.9701 7.44C18.366 7.44 18.7456 7.28196 19.0255 7.00066C19.3054 6.71936 19.4627 6.33782 19.4627 5.94Z"
    fill="#9480FF"
  />
</svg>
