<svg width="24" height="24" viewBox="0 0 24 24" fill="none" xmlns="http://www.w3.org/2000/svg">
  <g clip-path="url(#clip0)">
    <path
      d="M18.4242 5.66403L24 12.048L18.4242 18.384V14.136H10.0808V9.91202H18.4242V5.66403ZM15.0707 17.952L17.2121 20.52C15.1111 22.856 12.835 24.024 10.3838 24.024C7.46128 24.024 5 22.876 3 20.58C1 18.284 0 15.416 0 11.976C0 9.81602 0.457912 7.81603 1.37374 5.97603C2.28956 4.13604 3.52525 2.68404 5.08081 1.62004C6.63636 0.556047 8.32323 0.0240479 10.1414 0.0240479C12.6195 0.0240479 14.9697 1.20805 17.1919 3.57604L15.0707 6.12003C13.5354 4.45604 11.899 3.62404 10.1616 3.62404C8.15488 3.62404 6.46128 4.45604 5.08081 6.12003C3.70034 7.78403 3.0101 9.81602 3.0101 12.216C3.0101 14.456 3.72054 16.384 5.14141 18C6.56229 19.616 8.22896 20.424 10.1414 20.424C11.9057 20.424 13.5488 19.6 15.0707 17.952Z"
      fill="#BDBDBD"
    />
  </g>

  <defs>
    <clipPath id="clip0">
      <rect width="24" height="24" fill="white"/>
    </clipPath>
  </defs>
</svg>
