<svg width="24" height="24" viewBox="0 0 24 24" fill="none" xmlns="http://www.w3.org/2000/svg">
  <path d="M9 12C9 12.7956 9.31607 13.5587 9.87868 14.1213C10.4413 14.6839 11.2044 15 12 15C12.7956 15 13.5587 14.6839 14.1213 14.1213C14.6839 13.5587 15 12.7956 15 12C15 11.2044 14.6839 10.4413 14.1213 9.87868C13.5587 9.31607 12.7956 9 12 9C11.2044 9 10.4413 9.31607 9.87868 9.87868C9.31607 10.4413 9 11.2044 9 12ZM9 3C9 3.79565 9.31607 4.55871 9.87868 5.12132C10.4413 5.68393 11.2044 6 12 6C12.7956 6 13.5587 5.68393 14.1213 5.12132C14.6839 4.55871 15 3.79565 15 3C15 2.20435 14.6839 1.44129 14.1213 0.87868C13.5587 0.31607 12.7956 0 12 0C11.2044 0 10.4413 0.31607 9.87868 0.87868C9.31607 1.44129 9 2.20435 9 3ZM9 21C9 21.7956 9.31607 22.5587 9.87868 23.1213C10.4413 23.6839 11.2044 24 12 24C12.7956 24 13.5587 23.6839 14.1213 23.1213C14.6839 22.5587 15 21.7956 15 21C15 20.2044 14.6839 19.4413 14.1213 18.8787C13.5587 18.3161 12.7956 18 12 18C11.2044 18 10.4413 18.3161 9.87868 18.8787C9.31607 19.4413 9 20.2044 9 21Z" fill="black"/>
</svg>
