<svg width="24" height="24" viewBox="0 0 24 24" fill="none" xmlns="http://www.w3.org/2000/svg">
  <path
    fill-rule="evenodd"
    clip-rule="evenodd"
    d="M17.8374 0H0.743226C0.332129 0 0 0.332129 0 0.743226V17.8374C0 18.2485 0.332129 18.5806 0.743226 18.5806H13.51L16.1833 15.8931C16.1997 15.8757 16.2117 15.8546 16.2183 15.8316C16.2249 15.8086 16.2258 15.7843 16.2211 15.7609C16.1841 15.5636 16.1642 15.3634 16.1618 15.1626C16.1623 14.2213 16.5346 13.3188 17.1969 12.6532C17.5891 12.259 18.064 11.9671 18.5806 11.7944V0.743226C18.5806 0.332129 18.2485 0 17.8374 0ZM5.94581 14.6787C5.94581 14.7809 5.86219 14.8645 5.76 14.8645H3.90194C3.79974 14.8645 3.71613 14.7809 3.71613 14.6787V3.90194C3.71613 3.79974 3.79974 3.71613 3.90194 3.71613H5.76C5.86219 3.71613 5.94581 3.79974 5.94581 3.90194V14.6787ZM10.4052 8.17548C10.4052 8.27768 10.3215 8.36129 10.2194 8.36129H8.36129C8.2591 8.36129 8.17548 8.27768 8.17548 8.17548V3.90194C8.17548 3.79974 8.2591 3.71613 8.36129 3.71613H10.2194C10.3215 3.71613 10.4052 3.79974 10.4052 3.90194V8.17548ZM14.8645 9.84774C14.8645 9.94994 14.7809 10.0335 14.6787 10.0335H12.8206C12.7185 10.0335 12.6348 9.94994 12.6348 9.84774V3.90194C12.6348 3.79974 12.7185 3.71613 12.8206 3.71613H14.6787C14.7809 3.71613 14.8645 3.79974 14.8645 3.90194V9.84774ZM17.9711 14.2016C17.3088 14.8672 16.9365 15.7697 16.936 16.711C16.9384 16.9118 16.9583 17.1119 16.9953 17.3093C17 17.3327 16.9991 17.357 16.9925 17.38C16.9859 17.403 16.9739 17.4241 16.9575 17.4415L13.5959 20.821C13.3177 21.1001 13.1613 21.4789 13.1613 21.8745V23.0516C13.1613 23.3031 13.2607 23.5444 13.4377 23.7222C13.6147 23.9001 13.8547 24 14.105 24H15.4531C15.7033 24 15.9434 23.9001 16.1203 23.7222C16.2973 23.5444 16.3967 23.3031 16.3967 23.0516V22.3742H17.3404C17.7125 22.3742 18.0144 22.0707 18.0144 21.6968V20.7484H18.9581C19.1325 20.7482 19.3 20.6802 19.4255 20.5585C19.551 20.4368 19.6247 20.271 19.6311 20.0959C19.8991 20.1653 20.1816 20.2065 20.468 20.2065C21.4046 20.2059 22.3026 19.8317 22.9649 19.1661C23.6271 18.5006 23.9994 17.598 24 16.6568C24 14.689 22.4071 13.1613 20.468 13.1613C19.5314 13.1619 18.6334 13.536 17.9711 14.2016ZM21.7535 15.3649C21.8799 15.4919 21.9509 15.6642 21.9509 15.8439C21.9509 16.0235 21.8799 16.1958 21.7535 16.3229C21.6271 16.4499 21.4556 16.5213 21.2768 16.5213C21.0981 16.5213 20.9266 16.4499 20.8002 16.3229C20.6738 16.1958 20.6028 16.0235 20.6028 15.8439C20.6028 15.6642 20.6738 15.4919 20.8002 15.3649C20.9266 15.2378 21.0981 15.1665 21.2768 15.1665C21.4556 15.1665 21.6271 15.2378 21.7535 15.3649Z"
    fill="currentColor"
  />
</svg>
