<svg width="24" height="24" viewBox="0 0 24 24" fill="none" xmlns="http://www.w3.org/2000/svg">
<path d="M8 3H4C3.44772 3 3 3.44772 3 4V8C3 8.55228 3.44772 9 4 9H8C8.55228 9 9 8.55228 9 8V4C9 3.44772 8.55228 3 8 3Z" stroke="black" stroke-width="2" stroke-linecap="round" stroke-linejoin="round"/>
<path d="M20 14.9999H16C15.4477 14.9999 15 15.4477 15 15.9999V19.9999C15 20.5522 15.4477 20.9999 16 20.9999H20C20.5523 20.9999 21 20.5522 21 19.9999V15.9999C21 15.4477 20.5523 14.9999 20 14.9999Z" stroke="black" stroke-width="2" stroke-linecap="round" stroke-linejoin="round"/>
<path d="M3 12.9999V15.9999C3 16.5304 3.21071 17.0391 3.58579 17.4142C3.96086 17.7892 4.46957 17.9999 5 17.9999H11M11 17.9999L8 14.9999M11 17.9999L8 20.9999" stroke="black" stroke-width="2" stroke-linecap="round" stroke-linejoin="round"/>
<path d="M3 12.9999V15.9999C3 16.5304 3.21071 17.0391 3.58579 17.4142C3.96086 17.7892 4.46957 17.9999 5 17.9999H11M11 17.9999L8 14.9999M11 17.9999L8 20.9999" stroke="black" stroke-width="2" stroke-linecap="round" stroke-linejoin="round"/>
<path d="M21 10.9999L21 7.99994C21 7.46951 20.7893 6.9608 20.4142 6.58573C20.0391 6.21065 19.5304 5.99994 19 5.99994L13 5.99994M13 5.99994L16 8.99994M13 5.99994L16 2.99994" stroke="black" stroke-width="2" stroke-linecap="round" stroke-linejoin="round"/>
</svg>
