<svg viewBox="0 0 105 105" fill="none" xmlns="http://www.w3.org/2000/svg">
  <path d="M52.5 105C66.4239 105 79.7775 99.4688 89.6231 89.6231C99.4688 79.7775 105 66.4239 105 52.5C105 42.1165 101.921 31.9662 96.1522 23.3326C90.3834 14.699 82.184 7.96995 72.5909 3.99635C62.9978 0.0227473 52.4418 -1.01693 42.2578 1.0088C32.0738 3.03452 22.7192 8.03466 15.3769 15.3769C8.03466 22.7192 3.03452 32.0738 1.0088 42.2578C-1.01693 52.4418 0.0227473 62.9978 3.99635 72.5909C7.96995 82.184 14.699 90.3834 23.3326 96.1522C31.9662 101.921 42.1165 105 52.5 105ZM52.5 98.4375C43.4144 98.4375 34.5329 95.7433 26.9785 90.6956C19.4241 85.648 13.5362 78.4735 10.0593 70.0795C6.58241 61.6856 5.67269 52.4491 7.4452 43.5381C9.21771 34.6271 13.5928 26.4418 20.0173 20.0173C26.4418 13.5928 34.6271 9.21771 43.5381 7.4452C52.4491 5.67269 61.6856 6.58241 70.0795 10.0593C78.4735 13.5362 85.648 19.4241 90.6956 26.9785C95.7433 34.5329 98.4375 43.4144 98.4375 52.5C98.4375 64.6834 93.5977 76.3678 84.9827 84.9827C76.3678 93.5977 64.6834 98.4375 52.5 98.4375Z" fill="#6BE78D"/>
  <path d="M86.4932 31.6112C85.8555 30.9795 84.9928 30.625 84.0936 30.625C83.1945 30.625 82.3318 30.9795 81.6941 31.6112L43.9137 69.0848L23.4919 48.7371C22.869 48.0671 22.0045 47.671 21.0886 47.636C20.1726 47.601 19.2802 47.93 18.6077 48.5506C17.9352 49.1712 17.5376 50.0326 17.5025 50.9452C17.4674 51.8579 17.7976 52.747 18.4205 53.4171L43.9137 78.75L86.4932 36.4268C86.8122 36.1115 87.0654 35.7364 87.2382 35.3232C87.411 34.9099 87.5 34.4667 87.5 34.019C87.5 33.5713 87.411 33.128 87.2382 32.7148C87.0654 32.3015 86.8122 31.9264 86.4932 31.6112Z" fill="#6BE78D"/>
</svg>
