<svg width="24" height="24" viewBox="0 0 24 24" fill="none" xmlns="http://www.w3.org/2000/svg">
  <path
    d="M6.67999 9.67288H5.90922C4.8574 9.63192 3.80898 9.8243 2.82903 10.2381C1.84909 10.6518 0.958532 11.2782 0.212625 12.0782L0 12.3454V20.2486H3.61464V15.7625L4.1019 15.1707L4.32339 14.8939C5.47682 13.6173 6.9128 12.6779 8.49617 12.1641C7.70343 11.5142 7.07821 10.6566 6.67999 9.67288Z"
    fill="#BDBDBD"
  />

  <path
    d="M23.814 12.0496C23.0681 11.2495 22.1776 10.6232 21.1976 10.2094C20.2177 9.79567 19.1693 9.6033 18.1174 9.64425C17.7948 9.64524 17.4725 9.66436 17.1518 9.70152C16.7461 10.6244 16.1379 11.427 15.3799 12.04C17.0702 12.5438 18.6015 13.5337 19.8096 14.9035L20.0311 15.1707L20.5095 15.7625V20.2581H24.0001V12.3168L23.814 12.0496Z"
    fill="#BDBDBD"
  />

  <path
    d="M5.8824 7.81163H6.15704C6.02943 6.63117 6.22169 5.43614 6.71061 4.3708C7.19952 3.30546 7.96419 2.41535 8.91232 1.80791C8.56863 1.24224 8.09447 0.782421 7.53628 0.473491C6.97809 0.164562 6.35499 0.0171107 5.72801 0.0455766C5.10103 0.0740425 4.49166 0.277449 3.95957 0.635879C3.42748 0.99431 2.99092 1.49547 2.69262 2.0903C2.39433 2.68512 2.24453 3.35321 2.2579 4.02915C2.27127 4.70509 2.44736 5.36569 2.7689 5.94628C3.09045 6.52688 3.54644 7.00755 4.09222 7.34123C4.638 7.67491 5.25487 7.85015 5.8824 7.84981V7.81163Z"
    fill="#BDBDBD"
  />

  <path
    d="M17.6923 7.09584C17.7031 7.31522 17.7031 7.53506 17.6923 7.75444C17.8623 7.78348 18.0341 7.79942 18.2062 7.80216H18.3745C18.9993 7.76627 19.6048 7.5567 20.1321 7.19385C20.6594 6.831 21.0904 6.32724 21.3834 5.73161C21.6763 5.13598 21.8211 4.46878 21.8037 3.79497C21.7862 3.12116 21.6071 2.4637 21.2838 1.88659C20.9605 1.30949 20.504 0.832408 19.9588 0.501798C19.4135 0.171189 18.7981 -0.00168335 18.1725 1.23556e-05C17.5468 0.00170806 16.9322 0.177914 16.3885 0.511475C15.8448 0.845036 15.3906 1.32459 15.0699 1.90344C15.8718 2.46747 16.5311 3.23714 16.9888 4.14339C17.4465 5.04965 17.6883 6.06413 17.6923 7.09584Z"
    fill="#BDBDBD"
  />

  <path
    d="M11.8803 11.3719C14.0675 11.3719 15.8405 9.46165 15.8405 7.1053C15.8405 4.74895 14.0675 2.83875 11.8803 2.83875C9.69319 2.83875 7.92017 4.74895 7.92017 7.1053C7.92017 9.46165 9.69319 11.3719 11.8803 11.3719Z"
    fill="#BDBDBD"
  />

  <path
    d="M12.093 13.6436C10.936 13.5932 9.78154 13.7956 8.69903 14.2385C7.61651 14.6814 6.62835 15.3556 5.79399 16.2207L5.57251 16.4879V22.5298C5.57597 22.7266 5.61538 22.9208 5.68849 23.1012C5.76161 23.2816 5.86699 23.4447 5.99862 23.5812C6.13026 23.7177 6.28556 23.8249 6.45567 23.8967C6.62577 23.9685 6.80735 24.0035 6.99001 23.9997H17.1695C17.3521 24.0035 17.5337 23.9685 17.7038 23.8967C17.8739 23.8249 18.0292 23.7177 18.1609 23.5812C18.2925 23.4447 18.3979 23.2816 18.471 23.1012C18.5441 22.9208 18.5835 22.7266 18.587 22.5298V16.507L18.3743 16.2207C17.5454 15.353 16.5607 14.6768 15.4806 14.2337C14.4005 13.7905 13.2477 13.5897 12.093 13.6436Z"
    fill="#BDBDBD"
  />
</svg>
