<svg viewBox="0 0 105 105" fill="none" xmlns="http://www.w3.org/2000/svg">
  <path d="M52.5003 65.625C53.6605 65.625 54.7732 65.1384 55.5937 64.2722C56.4141 63.4061 56.875 62.2313 56.875 61.0064V39.6186C56.875 38.3937 56.4141 37.2189 55.5937 36.3528C54.7732 35.4866 53.6605 35 52.5003 35C51.34 35 50.2273 35.4866 49.4068 36.3528C48.5864 37.2189 48.1255 38.3937 48.1255 39.6186V60.9353C48.1166 61.5478 48.2232 62.156 48.439 62.7246C48.6549 63.2932 48.9757 63.8108 49.3828 64.2472C49.7899 64.6836 50.2752 65.0302 50.8104 65.2668C51.3456 65.5033 51.9201 65.6251 52.5003 65.625V65.625Z" fill="#F25656"/>
  <path d="M52.5 83.125C54.9162 83.125 56.875 80.1869 56.875 76.5625C56.875 72.9381 54.9162 70 52.5 70C50.0838 70 48.125 72.9381 48.125 76.5625C48.125 80.1869 50.0838 83.125 52.5 83.125Z" fill="#F25656"/>
  <path d="M103.506 82.7129L63.4037 10.6637C62.342 8.76087 60.774 7.17251 58.8647 6.0658C56.9554 4.9591 54.7756 4.375 52.5546 4.375C50.3336 4.375 48.1538 4.9591 46.2445 6.0658C44.3352 7.17251 42.7672 8.76087 41.7055 10.6637L1.56158 82.7129C0.510862 84.5525 -0.0271907 86.6286 0.00105765 88.7343C0.029306 90.84 0.622867 92.9016 1.72258 94.7138C2.82229 96.526 4.38973 98.0254 6.26868 99.0625C8.14762 100.1 10.2724 100.638 12.4313 100.625H92.6367C94.7779 100.627 96.8828 100.086 98.745 99.0547C100.607 98.0238 102.163 96.5384 103.259 94.7443C104.355 92.9502 104.954 90.9089 104.997 88.8208C105.041 86.7326 104.527 84.6694 103.506 82.8333V82.7129ZM96.1776 90.5041C95.8132 91.1036 95.2951 91.6003 94.6743 91.9454C94.0535 92.2904 93.3513 92.4719 92.6367 92.472H12.4313C11.7156 92.4739 11.0118 92.2938 10.3892 91.9495C9.76664 91.6052 9.24684 91.1085 8.88107 90.5085C8.5153 89.9084 8.31619 89.2257 8.30339 88.5278C8.29059 87.8298 8.46453 87.1406 8.80807 86.5282L48.9108 14.479C49.2636 13.8414 49.7866 13.3088 50.4245 12.9376C51.0623 12.5664 51.7913 12.3704 52.534 12.3704C53.2768 12.3704 54.0057 12.5664 54.6436 12.9376C55.2814 13.3088 55.8045 13.8414 56.1573 14.479L96.26 86.5282C96.6013 87.1408 96.7732 87.8296 96.7587 88.5268C96.7443 89.2239 96.544 89.9054 96.1776 90.5041V90.5041Z" fill="#F25656"/>
</svg>
